<?xml version="1.0" encoding="UTF-8"?>
<!DOCTYPE svg PUBLIC "-//W3C//DTD SVG 1.1//EN" "http://www.w3.org/Graphics/SVG/1.1/DTD/svg11.dtd">
<svg xmlns="http://www.w3.org/2000/svg" version="1.1" width="1407px" height="801px" style="shape-rendering:geometricPrecision; text-rendering:geometricPrecision; image-rendering:optimizeQuality; fill-rule:evenodd; clip-rule:evenodd" xmlns:xlink="http://www.w3.org/1999/xlink">
<g><path style="opacity:1" fill="#252529" d="M -0.5,0.5 C -0.5,0.166667 -0.5,-0.166667 -0.5,-0.5C 468.5,-0.5 937.5,-0.5 1406.5,-0.5C 1406.5,266.5 1406.5,533.5 1406.5,800.5C 1405.83,800.5 1405.17,800.5 1404.5,800.5C 1404.5,793.5 1404.5,786.5 1404.5,779.5C 1384.5,779.167 1384.5,778.833 1404.5,778.5C 1404.5,526.833 1404.5,275.167 1404.5,23.5C 1402.17,23.5 1399.83,23.5 1397.5,23.5C 1385.5,23.1667 1385.5,22.8333 1397.5,22.5C 1399.83,22.5 1402.17,22.5 1404.5,22.5C 1404.5,15.1667 1404.5,7.83333 1404.5,0.5C 1397.5,0.5 1390.5,0.5 1383.5,0.5C 1382.83,0.5 1382.17,0.5 1381.5,0.5C 928.5,0.5 475.5,0.5 22.5,0.5C 22.5,2.83333 22.5,5.16667 22.5,7.5C 22.81,10.7131 22.4767,13.7131 21.5,16.5C 21.5,13.5 21.5,10.5 21.5,7.5C 21.5,5.16667 21.5,2.83333 21.5,0.5C 14.1667,0.5 6.83333,0.5 -0.5,0.5 Z"/></g>
<g><path style="opacity:1" fill="#fefefe" d="M -0.5,0.5 C 6.83333,0.5 14.1667,0.5 21.5,0.5C 21.5,2.83333 21.5,5.16667 21.5,7.5C 16.5,7.5 11.5,7.5 6.5,7.5C 6.5,12.5 6.5,17.5 6.5,22.5C 4.16667,22.5 1.83333,22.5 -0.5,22.5C -0.5,15.1667 -0.5,7.83333 -0.5,0.5 Z"/></g>
<g><path style="opacity:1" fill="#fefffe" d="M 1381.5,0.5 C 1381.5,2.83333 1381.5,5.16667 1381.5,7.5C 928.5,7.5 475.5,7.5 22.5,7.5C 22.5,5.16667 22.5,2.83333 22.5,0.5C 475.5,0.5 928.5,0.5 1381.5,0.5 Z"/></g>
<g><path style="opacity:1" fill="#fefdfc" d="M 1383.5,0.5 C 1390.5,0.5 1397.5,0.5 1404.5,0.5C 1404.5,7.83333 1404.5,15.1667 1404.5,22.5C 1402.17,22.5 1399.83,22.5 1397.5,22.5C 1397.5,17.5 1397.5,12.5 1397.5,7.5C 1392.83,7.5 1388.17,7.5 1383.5,7.5C 1383.5,5.16667 1383.5,2.83333 1383.5,0.5 Z"/></g>
<g><path style="opacity:1" fill="#c37650" d="M 21.5,7.5 C 21.5,10.5 21.5,13.5 21.5,16.5C 20.5269,14.0521 20.1936,11.3854 20.5,8.5C 16.1667,8.5 11.8333,8.5 7.5,8.5C 7.5,12.8333 7.5,17.1667 7.5,21.5C 18.1667,22.1667 18.1667,22.8333 7.5,23.5C 7.16667,23.5 6.83333,23.5 6.5,23.5C 4.16667,23.5 1.83333,23.5 -0.5,23.5C -0.5,23.1667 -0.5,22.8333 -0.5,22.5C 1.83333,22.5 4.16667,22.5 6.5,22.5C 6.5,17.5 6.5,12.5 6.5,7.5C 11.5,7.5 16.5,7.5 21.5,7.5 Z"/></g>
<g><path style="opacity:1" fill="#ff6a20" d="M 22.5,7.5 C 475.5,7.5 928.5,7.5 1381.5,7.5C 1382.17,19.5 1382.83,19.5 1383.5,7.5C 1388.17,7.5 1392.83,7.5 1397.5,7.5C 1397.5,12.5 1397.5,17.5 1397.5,22.5C 1385.5,22.8333 1385.5,23.1667 1397.5,23.5C 1397.5,197.167 1397.5,370.833 1397.5,544.5C 934.167,544.5 470.833,544.5 7.5,544.5C 7.5,370.833 7.5,197.167 7.5,23.5C 18.1667,22.8333 18.1667,22.1667 7.5,21.5C 7.5,17.1667 7.5,12.8333 7.5,8.5C 11.8333,8.5 16.1667,8.5 20.5,8.5C 20.1936,11.3854 20.5269,14.0521 21.5,16.5C 22.4767,13.7131 22.81,10.7131 22.5,7.5 Z"/></g>
<g><path style="opacity:1" fill="#7a6b63" d="M 1381.5,0.5 C 1382.17,0.5 1382.83,0.5 1383.5,0.5C 1383.5,2.83333 1383.5,5.16667 1383.5,7.5C 1382.83,19.5 1382.17,19.5 1381.5,7.5C 1381.5,5.16667 1381.5,2.83333 1381.5,0.5 Z"/></g>
<g><path style="opacity:1" fill="#fffefe" d="M -0.5,23.5 C 1.83333,23.5 4.16667,23.5 6.5,23.5C 6.5,197.5 6.5,371.5 6.5,545.5C 470.334,545.833 934,545.5 1397.5,544.5C 1397.5,370.833 1397.5,197.167 1397.5,23.5C 1399.83,23.5 1402.17,23.5 1404.5,23.5C 1404.5,275.167 1404.5,526.833 1404.5,778.5C 1384.5,778.833 1384.5,779.167 1404.5,779.5C 1404.5,786.5 1404.5,793.5 1404.5,800.5C 1397.5,800.5 1390.5,800.5 1383.5,800.5C 1382.83,780.5 1382.17,780.5 1381.5,800.5C 920.833,800.5 460.167,800.5 -0.5,800.5C -0.5,541.5 -0.5,282.5 -0.5,23.5 Z"/></g>
<g><path style="opacity:1" fill="#fffbf9" d="M 539.5,109.5 C 539.5,227.5 539.5,345.5 539.5,463.5C 538.167,463.5 536.833,463.5 535.5,463.5C 535.5,345.5 535.5,227.5 535.5,109.5C 536.833,109.5 538.167,109.5 539.5,109.5 Z"/></g>
<g><path style="opacity:1" fill="#ffbd9c" d="M 539.5,109.5 C 540.5,227.665 540.833,345.999 540.5,464.5C 538.585,464.784 536.919,464.451 535.5,463.5C 536.833,463.5 538.167,463.5 539.5,463.5C 539.5,345.5 539.5,227.5 539.5,109.5 Z"/></g>
<g><path style="opacity:1" fill="#fffbf9" d="M 854.5,121.5 C 855.833,121.5 857.167,121.5 858.5,121.5C 858.333,137.837 858.5,154.17 859,170.5C 860.11,172.037 861.61,172.703 863.5,172.5C 863.773,174.451 863.107,175.951 861.5,177C 857.611,178.14 854.278,177.307 851.5,174.5C 844.58,178.259 837.58,178.426 830.5,175C 826.662,171.156 824.996,166.489 825.5,161C 827.014,145.004 835.681,138.838 851.5,142.5C 851.5,135.833 851.5,129.167 851.5,122.5C 852.791,122.737 853.791,122.404 854.5,121.5 Z"/></g>
<g><path style="opacity:1" fill="#fff8f4" d="M 1008.5,141.5 C 1009.21,142.404 1010.21,142.737 1011.5,142.5C 1011.5,135.833 1011.5,129.167 1011.5,122.5C 1014.07,121.55 1016.57,121.55 1019,122.5C 1019.33,138.833 1019.67,155.167 1020,171.5C 1021.01,172.337 1022.18,172.67 1023.5,172.5C 1023.77,174.451 1023.11,175.951 1021.5,177C 1017.61,178.14 1014.28,177.307 1011.5,174.5C 992.077,181.866 983.577,175.199 986,154.5C 989.901,144.128 997.401,139.794 1008.5,141.5 Z"/></g>
<g><path style="opacity:1" fill="#fffefd" d="M 1109.5,122.5 C 1109.5,140.5 1109.5,158.5 1109.5,176.5C 1107.17,176.5 1104.83,176.5 1102.5,176.5C 1102.5,158.5 1102.5,140.5 1102.5,122.5C 1105,121.583 1107.34,121.583 1109.5,122.5 Z"/></g>
<g><path style="opacity:1" fill="#ffd0b9" d="M 1109.5,122.5 C 1110.17,134.167 1110.83,145.833 1111.5,157.5C 1111.5,158.167 1111.5,158.833 1111.5,159.5C 1110.83,165.167 1110.17,170.833 1109.5,176.5C 1109.5,158.5 1109.5,140.5 1109.5,122.5 Z"/></g>
<g><path style="opacity:1" fill="#fff4ef" d="M 701.5,122.5 C 702.873,122.343 704.207,122.51 705.5,123C 707.494,125.827 709.828,128.327 712.5,130.5C 714.69,128.144 716.69,125.644 718.5,123C 720.134,122.506 721.801,122.34 723.5,122.5C 721.671,127.024 719.338,131.358 716.5,135.5C 713.059,137.006 709.892,136.673 707,134.5C 704.959,130.916 702.792,127.416 700.5,124C 701.056,123.617 701.389,123.117 701.5,122.5 Z"/></g>
<g><path style="opacity:1" fill="#fff4ee" d="M 741.5,122.5 C 744.247,122.187 746.914,122.52 749.5,123.5C 746.357,127.811 743.023,131.978 739.5,136C 737.741,136.798 736.074,136.631 734.5,135.5C 737.113,131.272 739.446,126.939 741.5,122.5 Z"/></g>
<g><path style="opacity:1" fill="#fff5ef" d="M 953.5,122.5 C 954.873,122.343 956.207,122.51 957.5,123C 959.959,125.446 962.292,127.946 964.5,130.5C 966.69,128.144 968.69,125.644 970.5,123C 972.134,122.506 973.801,122.34 975.5,122.5C 973.671,127.024 971.338,131.358 968.5,135.5C 965.628,136.783 962.795,136.783 960,135.5C 957.5,131.667 955,127.833 952.5,124C 953.056,123.617 953.389,123.117 953.5,122.5 Z"/></g>
<g><path style="opacity:1" fill="#ff9662" d="M 1011.5,122.5 C 1011.5,129.167 1011.5,135.833 1011.5,142.5C 1010.21,142.737 1009.21,142.404 1008.5,141.5C 1010.15,135.399 1011.15,129.065 1011.5,122.5 Z"/></g>
<g><path style="opacity:1" fill="#fff4ee" d="M 1156.5,122.5 C 1159.25,122.187 1161.91,122.52 1164.5,123.5C 1161.36,127.811 1158.02,131.978 1154.5,136C 1152.74,136.798 1151.07,136.631 1149.5,135.5C 1152.11,131.272 1154.45,126.939 1156.5,122.5 Z"/></g>
<g><path style="opacity:1" fill="#fffcfb" d="M 661.5,125.5 C 668.841,125.334 676.174,125.5 683.5,126C 691.854,129.02 695.02,134.853 693,143.5C 691.217,149.157 687.384,152.657 681.5,154C 677.249,155.195 672.915,155.695 668.5,155.5C 668.5,162.5 668.5,169.5 668.5,176.5C 666.167,176.5 663.833,176.5 661.5,176.5C 661.5,159.5 661.5,142.5 661.5,125.5 Z"/></g>
<g><path style="opacity:1" fill="#ffb995" d="M 661.5,125.5 C 661.5,142.5 661.5,159.5 661.5,176.5C 663.833,176.5 666.167,176.5 668.5,176.5C 666.052,177.473 663.385,177.806 660.5,177.5C 660.17,159.992 660.503,142.659 661.5,125.5 Z"/></g>
<g><path style="opacity:1" fill="#ffb18b" d="M 669.5,131.5 C 669.5,137.167 669.5,142.833 669.5,148.5C 670.833,148.5 672.167,148.5 673.5,148.5C 672.081,149.451 670.415,149.784 668.5,149.5C 668.177,143.31 668.51,137.31 669.5,131.5 Z"/></g>
<g><path style="opacity:1" fill="#ff6c23" d="M 669.5,131.5 C 675.526,130.676 680.693,132.342 685,136.5C 685.872,144.798 682.039,148.798 673.5,148.5C 672.167,148.5 670.833,148.5 669.5,148.5C 669.5,142.833 669.5,137.167 669.5,131.5 Z"/></g>
<g><path style="opacity:1" fill="#fff9f7" d="M 700.5,141.5 C 705.809,140.565 709.309,142.565 711,147.5C 714.564,142.26 719.397,140.426 725.5,142C 727.921,144.913 727.588,147.746 724.5,150.5C 719.294,148.543 714.794,149.543 711,153.5C 710.5,161.159 710.334,168.826 710.5,176.5C 708.167,176.5 705.833,176.5 703.5,176.5C 703.666,167.161 703.5,157.827 703,148.5C 701.89,146.963 700.39,146.297 698.5,146.5C 698.392,144.486 699.058,142.82 700.5,141.5 Z"/></g>
<g><path style="opacity:1" fill="#fffdfd" d="M 737.5,141.5 C 738.833,141.5 740.167,141.5 741.5,141.5C 741.5,153.167 741.5,164.833 741.5,176.5C 739.167,176.5 736.833,176.5 734.5,176.5C 734.5,165.167 734.5,153.833 734.5,142.5C 735.791,142.737 736.791,142.404 737.5,141.5 Z"/></g>
<g><path style="opacity:1" fill="#fff8f4" d="M 752.5,141.5 C 757.728,140.444 761.061,142.444 762.5,147.5C 764.69,145.476 767.023,143.643 769.5,142C 772.167,141.333 774.833,141.333 777.5,142C 778.428,142.388 779.095,143.055 779.5,144C 778.391,146.047 777.724,148.213 777.5,150.5C 771.87,148.299 767.036,149.299 763,153.5C 762.5,161.159 762.334,168.826 762.5,176.5C 759.833,176.5 757.167,176.5 754.5,176.5C 754.666,166.828 754.5,157.161 754,147.5C 752.989,146.663 751.822,146.33 750.5,146.5C 750.365,144.446 751.032,142.779 752.5,141.5 Z"/></g>
<g><path style="opacity:1" fill="#fff8f5" d="M 795.5,141.5 C 816.78,141.709 823.28,151.709 815,171.5C 807.753,177.569 799.586,179.069 790.5,176C 781.799,168.034 780.299,158.867 786,148.5C 788.79,145.535 791.957,143.202 795.5,141.5 Z"/></g>
<g><path style="opacity:1" fill="#fff8f5" d="M 881.5,141.5 C 900.155,140.656 907.322,149.323 903,167.5C 901.558,171.275 899.058,174.108 895.5,176C 879.722,181.555 870.722,176.222 868.5,160C 868.823,150.867 873.157,144.701 881.5,141.5 Z"/></g>
<g><path style="opacity:1" fill="#fff9f7" d="M 961.5,141.5 C 973.801,141.718 979.468,148.052 978.5,160.5C 970.833,160.5 963.167,160.5 955.5,160.5C 955.579,165.165 957.579,168.665 961.5,171C 966.189,171.291 970.856,171.291 975.5,171C 977.469,175.047 976.136,177.047 971.5,177C 951.713,179.541 944.213,171.041 949,151.5C 951.918,146.396 956.085,143.063 961.5,141.5 Z"/></g>
<g><path style="opacity:1" fill="#fff9f6" d="M 1041.5,141.5 C 1054.99,140.66 1060.99,146.993 1059.5,160.5C 1052.17,160.5 1044.83,160.5 1037.5,160.5C 1037.14,164.95 1038.81,168.45 1042.5,171C 1047.17,171.814 1051.67,171.314 1056,169.5C 1058.73,173.878 1057.56,176.378 1052.5,177C 1033.54,179.652 1026.04,171.485 1030,152.5C 1032.41,147.252 1036.25,143.586 1041.5,141.5 Z"/></g>
<g><path style="opacity:1" fill="#fff8f5" d="M 1079.5,141.5 C 1084.21,141.353 1088.88,141.686 1093.5,142.5C 1093.61,145.059 1092.94,147.392 1091.5,149.5C 1078.19,146.647 1073.02,151.98 1076,165.5C 1077.12,167.624 1078.62,169.457 1080.5,171C 1085.09,171.017 1089.59,171.183 1094,171.5C 1094.72,173.112 1094.55,174.612 1093.5,176C 1072.75,181.248 1064.25,173.414 1068,152.5C 1070.41,147.252 1074.25,143.586 1079.5,141.5 Z"/></g>
<g><path style="opacity:1" fill="#fff9f7" d="M 1145.5,141.5 C 1149.85,141.334 1154.18,141.501 1158.5,142C 1161.1,142.883 1163.27,144.383 1165,146.5C 1166.27,154.731 1166.94,163.064 1167,171.5C 1171.35,172.113 1172.18,173.946 1169.5,177C 1165.37,178.226 1161.87,177.393 1159,174.5C 1152,178.812 1145.34,178.479 1139,173.5C 1136.67,166.163 1139.17,161.33 1146.5,159C 1150.47,158.172 1154.47,157.672 1158.5,157.5C 1159.16,148.672 1155.16,145.505 1146.5,148C 1142.07,150.173 1140.24,148.673 1141,143.5C 1142.62,142.901 1144.12,142.234 1145.5,141.5 Z"/></g>
<g><path style="opacity:1" fill="#fff7f4" d="M 908.5,142.5 C 911.572,142.183 914.572,142.516 917.5,143.5C 920.436,151.807 923.269,160.14 926,168.5C 929.313,160.271 932.48,151.937 935.5,143.5C 938.318,142.12 940.985,142.287 943.5,144C 939.076,154.431 934.743,164.931 930.5,175.5C 927.538,177.034 924.538,177.367 921.5,176.5C 917.153,165.145 912.82,153.812 908.5,142.5 Z"/></g>
<g><path style="opacity:1" fill="#fff7f3" d="M 1111.5,159.5 C 1111.5,158.833 1111.5,158.167 1111.5,157.5C 1115.94,152.793 1120.28,147.959 1124.5,143C 1127.55,142.179 1130.55,142.345 1133.5,143.5C 1128.99,148.507 1124.33,153.34 1119.5,158C 1124.64,163.971 1129.97,169.805 1135.5,175.5C 1132.22,176.657 1128.88,176.824 1125.5,176C 1120.62,170.627 1115.96,165.127 1111.5,159.5 Z"/></g>
<g><path style="opacity:1" fill="#ff6d26" d="M 796.5,147.5 C 803.339,146.166 807.839,148.832 810,155.5C 811.528,162.602 809.362,168.102 803.5,172C 798.062,172.933 794.228,170.766 792,165.5C 791.333,161.5 791.333,157.5 792,153.5C 792.804,150.854 794.304,148.854 796.5,147.5 Z"/></g>
<g><path style="opacity:1" fill="#ff6f28" d="M 839.5,147.5 C 843.548,147.395 847.548,147.728 851.5,148.5C 851.83,155.532 851.497,162.532 850.5,169.5C 837.222,173.738 831.722,168.738 834,154.5C 835.371,151.734 837.204,149.401 839.5,147.5 Z"/></g>
<g><path style="opacity:1" fill="#ff6e26" d="M 882.5,147.5 C 889.339,146.166 893.839,148.832 896,155.5C 897.54,162.561 895.373,168.061 889.5,172C 884.035,172.894 880.202,170.727 878,165.5C 877.333,161.167 877.333,156.833 878,152.5C 879.059,150.341 880.559,148.674 882.5,147.5 Z"/></g>
<g><path style="opacity:1" fill="#ff6e28" d="M 961.5,147.5 C 967.627,146.627 970.627,149.293 970.5,155.5C 965.833,155.5 961.167,155.5 956.5,155.5C 956.536,151.8 958.203,149.133 961.5,147.5 Z"/></g>
<g><path style="opacity:1" fill="#ff6e27" d="M 1000.5,147.5 C 1003.91,147.249 1007.24,147.583 1010.5,148.5C 1011.83,155.5 1011.83,162.5 1010.5,169.5C 997.211,173.726 991.711,168.726 994,154.5C 995.694,151.642 997.861,149.309 1000.5,147.5 Z"/></g>
<g><path style="opacity:1" fill="#ff6f28" d="M 1042.5,147.5 C 1048.67,146.677 1051.67,149.344 1051.5,155.5C 1046.83,155.5 1042.17,155.5 1037.5,155.5C 1038.17,152.16 1039.83,149.493 1042.5,147.5 Z"/></g>
<g><path style="opacity:1" fill="#ff702a" d="M 1152.5,162.5 C 1154.5,162.5 1156.5,162.5 1158.5,162.5C 1159.39,169.914 1156.05,173.081 1148.5,172C 1146.68,170.534 1146.18,168.701 1147,166.5C 1148.5,164.531 1150.33,163.198 1152.5,162.5 Z"/></g>
<g><path style="opacity:1" fill="#fffdfc" d="M 417.5,177.5 C 418.5,177.5 419.5,177.5 420.5,177.5C 409.977,239.86 385.81,296.193 348,346.5C 334.333,363.5 320.667,380.5 307,397.5C 292.093,379.349 277.426,361.016 263,342.5C 236.184,307.115 217.184,267.782 206,224.5C 205.165,219.817 204.332,215.15 203.5,210.5C 221.544,206.447 233.544,195.78 239.5,178.5C 288.5,188.271 337.833,190.105 387.5,184C 397.702,182.147 407.702,179.981 417.5,177.5 Z"/></g>
<g><path style="opacity:1" fill="#ff6c24" d="M 315.5,271.5 C 312.5,271.5 309.5,271.5 306.5,271.5C 306.169,293.007 306.503,314.34 307.5,335.5C 322.827,335.596 333.327,328.596 339,314.5C 341.041,290.463 343.208,266.463 345.5,242.5C 354.167,241.167 362.833,241.167 371.5,242.5C 365.387,243.107 361.554,246.441 360,252.5C 357.428,272.124 355.094,291.791 353,311.5C 349.473,330.025 338.306,340.859 319.5,344C 303.809,346.46 289.142,343.794 275.5,336C 269.16,330.486 264.993,323.652 263,315.5C 260.99,294.06 258.323,272.727 255,251.5C 253.073,246.572 249.573,243.406 244.5,242C 253.494,241.5 262.494,241.334 271.5,241.5C 272.234,265.855 273.401,290.189 275,314.5C 276.848,321.022 280.348,326.522 285.5,331C 287.909,332.707 290.575,333.54 293.5,333.5C 293.5,292.833 293.5,252.167 293.5,211.5C 279.496,211.667 265.496,211.5 251.5,211C 254.333,208.167 257.167,205.333 260,202.5C 262.166,204.121 264.666,204.955 267.5,205C 284.167,205.333 300.833,205.667 317.5,206C 327.711,209.213 334.211,216.046 337,226.5C 339.363,240.122 337.03,252.789 330,264.5C 326.054,268.65 321.221,270.983 315.5,271.5 Z"/></g>
<g><path style="opacity:1" fill="#fffbf9" d="M 724.5,208.5 C 726.833,208.5 729.167,208.5 731.5,208.5C 731.333,220.505 731.5,232.505 732,244.5C 736.133,239.366 740.633,234.532 745.5,230C 748.5,229.333 751.5,229.333 754.5,230C 749.651,234.681 744.985,239.515 740.5,244.5C 746.205,250.203 751.538,256.203 756.5,262.5C 753.554,263.655 750.554,263.821 747.5,263C 742.333,257.167 737.167,251.333 732,245.5C 731.501,251.491 731.334,257.491 731.5,263.5C 728.833,263.5 726.167,263.5 723.5,263.5C 723.18,245.09 723.514,226.757 724.5,208.5 Z"/></g>
<g><path style="opacity:1" fill="#fffdfd" d="M 807.5,208.5 C 809.833,208.5 812.167,208.5 814.5,208.5C 814.5,226.833 814.5,245.167 814.5,263.5C 812.167,263.5 809.833,263.5 807.5,263.5C 807.5,245.167 807.5,226.833 807.5,208.5 Z"/></g>
<g><path style="opacity:1" fill="#fffcfb" d="M 670.5,221.5 C 669.527,223.948 669.194,226.615 669.5,229.5C 672.833,229.5 676.167,229.5 679.5,229.5C 679.5,231.167 679.5,232.833 679.5,234.5C 676.167,234.5 672.833,234.5 669.5,234.5C 669.5,244.167 669.5,253.833 669.5,263.5C 667.167,263.5 664.833,263.5 662.5,263.5C 662.5,253.833 662.5,244.167 662.5,234.5C 660.833,234.5 659.167,234.5 657.5,234.5C 656.28,232.95 656.28,231.284 657.5,229.5C 659.167,229.5 660.833,229.5 662.5,229.5C 662.5,226.833 662.5,224.167 662.5,221.5C 664.93,210.936 671.597,206.936 682.5,209.5C 682.5,211.5 682.5,213.5 682.5,215.5C 678.743,215.071 675.243,215.737 672,217.5C 671.209,218.745 670.709,220.078 670.5,221.5 Z"/></g>
<g><path style="opacity:1" fill="#fffcfb" d="M 307.5,212.5 C 315.539,212.03 320.706,215.697 323,223.5C 325.522,235.48 324.522,247.147 320,258.5C 317.244,263.296 313.077,265.629 307.5,265.5C 307.5,247.833 307.5,230.167 307.5,212.5 Z"/></g>
<g><path style="opacity:1" fill="#fff8f5" d="M 828.5,217.5 C 831.167,217.5 833.833,217.5 836.5,217.5C 836.5,221.167 836.5,224.833 836.5,228.5C 839.833,228.5 843.167,228.5 846.5,228.5C 846.5,230.5 846.5,232.5 846.5,234.5C 843.167,234.5 839.833,234.5 836.5,234.5C 836.334,241.508 836.5,248.508 837,255.5C 840.238,257.757 843.738,258.09 847.5,256.5C 848.768,258.304 849.435,260.304 849.5,262.5C 844.629,264.208 839.629,264.708 834.5,264C 832,262.833 830.167,261 829,258.5C 828.5,250.507 828.334,242.507 828.5,234.5C 826.833,234.5 825.167,234.5 823.5,234.5C 823.5,232.833 823.5,231.167 823.5,229.5C 825.167,229.5 826.833,229.5 828.5,229.5C 828.5,225.5 828.5,221.5 828.5,217.5 Z"/></g>
<g><path style="opacity:1" fill="#ff9f6f" d="M 662.5,221.5 C 662.5,224.167 662.5,226.833 662.5,229.5C 660.833,229.5 659.167,229.5 657.5,229.5C 658.568,228.566 659.901,228.232 661.5,228.5C 661.198,225.941 661.532,223.607 662.5,221.5 Z"/></g>
<g><path style="opacity:1" fill="#ffbc9a" d="M 670.5,221.5 C 670.5,223.833 670.5,226.167 670.5,228.5C 673.713,228.19 676.713,228.523 679.5,229.5C 676.167,229.5 672.833,229.5 669.5,229.5C 669.194,226.615 669.527,223.948 670.5,221.5 Z"/></g>
<g><path style="opacity:1" fill="#fff7f4" d="M 687.5,228.5 C 692.844,228.334 698.177,228.501 703.5,229C 705.848,229.346 707.681,230.513 709,232.5C 710.273,240.731 710.94,249.064 711,257.5C 715.626,258.385 716.459,260.552 713.5,264C 709.163,265.418 705.829,264.252 703.5,260.5C 697.74,264.973 691.74,265.473 685.5,262C 680.575,255.165 681.909,249.832 689.5,246C 693.703,244.431 698.036,243.598 702.5,243.5C 703.124,239.987 702.124,237.153 699.5,235C 694.806,234.436 690.14,234.603 685.5,235.5C 685.714,233.856 685.38,232.356 684.5,231C 685.571,230.148 686.571,229.315 687.5,228.5 Z"/></g>
<g><path style="opacity:1" fill="#fff7f3" d="M 766.5,228.5 C 768.167,228.5 769.833,228.5 771.5,228.5C 771.334,237.173 771.5,245.84 772,254.5C 773.463,256.885 775.629,257.885 778.5,257.5C 781.514,257.742 784.014,256.742 786,254.5C 786.333,246.167 786.667,237.833 787,229.5C 789.381,228.565 791.881,228.232 794.5,228.5C 794.5,238.5 794.5,248.5 794.5,258.5C 795.833,258.5 797.167,258.5 798.5,258.5C 798.068,264.333 795.068,265.999 789.5,263.5C 788.719,262.263 787.719,261.263 786.5,260.5C 780.945,264.58 774.945,265.413 768.5,263C 766.622,261.457 765.122,259.624 764,257.5C 763.5,248.173 763.334,238.839 763.5,229.5C 764.791,229.737 765.791,229.404 766.5,228.5 Z"/></g>
<g><path style="opacity:1" fill="#fff8f5" d="M 861.5,228.5 C 865.846,228.334 870.179,228.501 874.5,229C 877.196,229.69 879.363,231.19 881,233.5C 882.406,241.749 882.906,250.083 882.5,258.5C 883.833,258.5 885.167,258.5 886.5,258.5C 886.068,264.333 883.068,265.999 877.5,263.5C 876.667,262.5 875.833,261.5 875,260.5C 868.164,265.621 861.497,265.621 855,260.5C 854.333,257.167 854.333,253.833 855,250.5C 860.454,245.37 866.954,243.037 874.5,243.5C 875.125,240.03 874.125,237.196 871.5,235C 867.11,234.228 862.777,234.394 858.5,235.5C 856.914,233.827 856.247,231.827 856.5,229.5C 858.415,229.784 860.081,229.451 861.5,228.5 Z"/></g>
<g><path style="opacity:1" fill="#ff9966" d="M 657.5,234.5 C 659.167,234.5 660.833,234.5 662.5,234.5C 662.5,244.167 662.5,253.833 662.5,263.5C 661.506,254.348 661.173,245.015 661.5,235.5C 659.901,235.768 658.568,235.434 657.5,234.5 Z"/></g>
<g><path style="opacity:1" fill="#ffae86" d="M 679.5,234.5 C 676.713,235.477 673.713,235.81 670.5,235.5C 670.827,245.015 670.494,254.348 669.5,263.5C 669.5,253.833 669.5,244.167 669.5,234.5C 672.833,234.5 676.167,234.5 679.5,234.5 Z"/></g>
<g><path style="opacity:1" fill="#ff7029" d="M 695.5,249.5 C 697.833,249.5 700.167,249.5 702.5,249.5C 703.036,256.794 699.703,259.627 692.5,258C 691.426,257.261 690.759,256.261 690.5,255C 691.34,252.33 693.006,250.497 695.5,249.5 Z"/></g>
<g><path style="opacity:1" fill="#ff722d" d="M 869.5,248.5 C 871.167,248.5 872.833,248.5 874.5,248.5C 875.357,256.914 871.69,259.914 863.5,257.5C 862.09,255.051 862.424,252.884 864.5,251C 866.315,250.243 867.981,249.41 869.5,248.5 Z"/></g>
<g><path style="opacity:1" fill="#ff9f70" d="M 315.5,271.5 C 313.052,272.473 310.385,272.806 307.5,272.5C 307.5,293.5 307.5,314.5 307.5,335.5C 306.503,314.34 306.169,293.007 306.5,271.5C 309.5,271.5 312.5,271.5 315.5,271.5 Z"/></g>
<g><path style="opacity:1" fill="#fffefe" d="M 974.5,362.5 C 975.833,362.5 977.167,362.5 978.5,362.5C 978.5,375.833 978.5,389.167 978.5,402.5C 976.833,402.5 975.167,402.5 973.5,402.5C 973.186,389.087 973.519,375.754 974.5,362.5 Z"/></g>
<g><path style="opacity:1" fill="#fffdfc" d="M 1092.5,362.5 C 1093.83,362.5 1095.17,362.5 1096.5,362.5C 1096.33,368.176 1096.5,373.843 1097,379.5C 1102.92,376.29 1108.25,376.956 1113,381.5C 1113.5,388.492 1113.67,395.492 1113.5,402.5C 1111.83,402.5 1110.17,402.5 1108.5,402.5C 1108.82,396.974 1108.49,391.64 1107.5,386.5C 1106.62,382.216 1103.95,380.716 1099.5,382C 1098.97,382.692 1098.31,383.192 1097.5,383.5C 1096.5,389.798 1096.17,396.132 1096.5,402.5C 1094.83,402.5 1093.17,402.5 1091.5,402.5C 1091.19,389.087 1091.52,375.754 1092.5,362.5 Z"/></g>
<g><path style="opacity:1" fill="#ffc3a5" d="M 974.5,362.5 C 973.519,375.754 973.186,389.087 973.5,402.5C 975.167,402.5 976.833,402.5 978.5,402.5C 976.735,403.461 974.735,403.795 972.5,403.5C 971.851,389.459 972.518,375.792 974.5,362.5 Z"/></g>
<g><path style="opacity:1" fill="#ffd5bf" d="M 1037.5,363.5 C 1037.5,376.5 1037.5,389.5 1037.5,402.5C 1039.17,402.5 1040.83,402.5 1042.5,402.5C 1040.74,403.461 1038.74,403.795 1036.5,403.5C 1036.17,389.99 1036.5,376.656 1037.5,363.5 Z"/></g>
<g><path style="opacity:1" fill="#fff7f2" d="M 1075.5,363.5 C 1077.53,363.338 1079.53,363.505 1081.5,364C 1079.2,367.297 1076.54,370.297 1073.5,373C 1072.55,373.483 1071.55,373.649 1070.5,373.5C 1071.62,369.926 1073.29,366.592 1075.5,363.5 Z"/></g>
<g><path style="opacity:1" fill="#ffdbc9" d="M 1092.5,362.5 C 1091.52,375.754 1091.19,389.087 1091.5,402.5C 1093.17,402.5 1094.83,402.5 1096.5,402.5C 1094.74,403.461 1092.74,403.795 1090.5,403.5C 1089.85,389.459 1090.52,375.792 1092.5,362.5 Z"/></g>
<g><path style="opacity:1" fill="#fff7f3" d="M 658.5,365.5 C 660.5,365.5 662.5,365.5 664.5,365.5C 664.334,375.172 664.5,384.839 665,394.5C 666.529,397.516 669.029,398.849 672.5,398.5C 676.035,398.649 678.868,397.316 681,394.5C 681.5,384.839 681.666,375.172 681.5,365.5C 683.5,365.5 685.5,365.5 687.5,365.5C 687.666,375.506 687.5,385.506 687,395.5C 684.397,401.254 679.897,403.921 673.5,403.5C 667.144,404.114 662.311,401.781 659,396.5C 658.5,386.172 658.334,375.839 658.5,365.5 Z"/></g>
<g><path style="opacity:1" fill="#fff6f1" d="M 727.5,365.5 C 733.555,364.942 734.888,367.109 731.5,372C 726.791,372.082 725.458,369.915 727.5,365.5 Z"/></g>
<g><path style="opacity:1" fill="#ffeee5" d="M 841.5,365.5 C 847.555,364.942 848.888,367.109 845.5,372C 842.186,373.165 840.186,371.998 839.5,368.5C 840.193,367.482 840.859,366.482 841.5,365.5 Z"/></g>
<g><path style="opacity:1" fill="#fff7f4" d="M 918.5,364.5 C 925.391,363.901 932.058,364.735 938.5,367C 943.773,372.595 943.773,378.261 938.5,384C 934.104,386.299 929.438,387.466 924.5,387.5C 924.5,392.833 924.5,398.167 924.5,403.5C 922.5,403.5 920.5,403.5 918.5,403.5C 918.5,390.5 918.5,377.5 918.5,364.5 Z"/></g>
<g><path style="opacity:1" fill="#fff6f2" d="M 856.5,368.5 C 858.167,368.5 859.833,368.5 861.5,368.5C 861.5,371.5 861.5,374.5 861.5,377.5C 864.167,377.5 866.833,377.5 869.5,377.5C 869.67,378.822 869.337,379.989 868.5,381C 866.19,381.497 863.857,381.663 861.5,381.5C 861.334,386.844 861.501,392.177 862,397.5C 864.719,398.444 867.552,398.777 870.5,398.5C 870.773,400.451 870.107,401.951 868.5,403C 864.428,403.956 860.595,403.456 857,401.5C 855.584,395.285 855.084,388.952 855.5,382.5C 853.654,382.778 852.32,382.111 851.5,380.5C 852.077,378.45 853.41,377.45 855.5,377.5C 855.264,374.391 855.597,371.391 856.5,368.5 Z"/></g>
<g><path style="opacity:1" fill="#ff6f28" d="M 924.5,369.5 C 928.839,368.846 932.673,369.846 936,372.5C 936.944,375.347 936.444,377.847 934.5,380C 931.392,381.759 928.059,382.592 924.5,382.5C 924.5,378.167 924.5,373.833 924.5,369.5 Z"/></g>
<g><path style="opacity:1" fill="#fffcfb" d="M 718.5,384.5 C 718.5,390.5 718.5,396.5 718.5,402.5C 716.833,402.5 715.167,402.5 713.5,402.5C 713.666,396.491 713.499,390.491 713,384.5C 709.784,380.935 706.284,380.602 702.5,383.5C 701.51,389.645 701.177,395.978 701.5,402.5C 699.833,402.5 698.167,402.5 696.5,402.5C 696.824,395.646 696.491,388.979 695.5,382.5C 694.34,381.735 693.34,380.735 692.5,379.5C 695.383,376.91 698.383,376.91 701.5,379.5C 706.425,377.074 711.425,376.908 716.5,379C 717.861,380.584 718.528,382.418 718.5,384.5 Z"/></g>
<g><path style="opacity:1" fill="#fffefe" d="M 732.5,377.5 C 732.5,385.833 732.5,394.167 732.5,402.5C 730.833,402.5 729.167,402.5 727.5,402.5C 727.5,394.5 727.5,386.5 727.5,378.5C 728.919,377.549 730.585,377.216 732.5,377.5 Z"/></g>
<g><path style="opacity:1" fill="#ffaa81" d="M 732.5,377.5 C 733.493,385.984 733.826,394.651 733.5,403.5C 731.167,403.5 728.833,403.5 726.5,403.5C 726.174,394.983 726.507,386.65 727.5,378.5C 727.5,386.5 727.5,394.5 727.5,402.5C 729.167,402.5 730.833,402.5 732.5,402.5C 732.5,394.167 732.5,385.833 732.5,377.5 Z"/></g>
<g><path style="opacity:1" fill="#fff7f3" d="M 787.5,390.5 C 781.833,390.5 776.167,390.5 770.5,390.5C 770.263,391.791 770.596,392.791 771.5,393.5C 771.624,395.582 772.624,397.082 774.5,398C 777.713,398.703 780.879,398.536 784,397.5C 785.876,398.619 786.709,400.286 786.5,402.5C 768.497,406.667 761.997,400 767,382.5C 771.14,377.789 776.306,376.289 782.5,378C 786.795,381.093 788.462,385.26 787.5,390.5 Z"/></g>
<g><path style="opacity:1" fill="#fff3ed" d="M 791.5,377.5 C 795.471,376.758 798.304,378.091 800,381.5C 803.298,377.835 807.465,376.502 812.5,377.5C 812.27,382.1 810.103,383.767 806,382.5C 804.188,382.493 802.688,383.16 801.5,384.5C 800.67,390.472 800.17,396.472 800,402.5C 798.301,403.406 796.467,403.739 794.5,403.5C 794.5,396.167 794.5,388.833 794.5,381.5C 791.046,381.733 790.046,380.4 791.5,377.5 Z"/></g>
<g><path style="opacity:1" fill="#fffefe" d="M 841.5,377.5 C 843.167,377.5 844.833,377.5 846.5,377.5C 846.5,385.833 846.5,394.167 846.5,402.5C 844.833,402.5 843.167,402.5 841.5,402.5C 841.5,394.167 841.5,385.833 841.5,377.5 Z"/></g>
<g><path style="opacity:1" fill="#fff6f2" d="M 875.5,377.5 C 880.179,377.334 884.845,377.501 889.5,378C 890.931,378.465 892.097,379.299 893,380.5C 894.416,386.715 894.916,393.048 894.5,399.5C 895.5,399.5 896.5,399.5 897.5,399.5C 897.845,402.488 896.512,403.821 893.5,403.5C 891.519,403.563 889.852,402.896 888.5,401.5C 883.313,404.494 878.48,404.161 874,400.5C 872.369,394.109 874.869,390.276 881.5,389C 883.81,388.503 886.143,388.337 888.5,388.5C 888.683,386.064 888.016,383.897 886.5,382C 883.464,381.362 880.464,381.528 877.5,382.5C 874.831,381.51 874.165,379.844 875.5,377.5 Z"/></g>
<g><path style="opacity:1" fill="#fff7f4" d="M 947.5,377.5 C 951.846,377.334 956.179,377.501 960.5,378C 961.667,379.167 962.833,380.333 964,381.5C 964.499,387.491 964.666,393.491 964.5,399.5C 965.5,399.5 966.5,399.5 967.5,399.5C 967.845,402.488 966.512,403.821 963.5,403.5C 961.519,403.563 959.852,402.896 958.5,401.5C 954.771,403.508 950.771,404.008 946.5,403C 942.545,399.205 942.545,395.372 946.5,391.5C 950.196,389.268 954.196,388.268 958.5,388.5C 958.683,386.064 958.016,383.897 956.5,382C 952.812,381.55 949.146,381.717 945.5,382.5C 945.365,380.446 946.032,378.779 947.5,377.5 Z"/></g>
<g><path style="opacity:1" fill="#fff6f2" d="M 986.5,377.5 C 991.179,377.334 995.845,377.501 1000.5,378C 1001.93,378.465 1003.1,379.299 1004,380.5C 1005.42,386.715 1005.92,393.048 1005.5,399.5C 1006.5,399.5 1007.5,399.5 1008.5,399.5C 1008.85,402.488 1007.51,403.821 1004.5,403.5C 1002.52,403.563 1000.85,402.896 999.5,401.5C 994.313,404.494 989.48,404.161 985,400.5C 983.369,394.109 985.869,390.276 992.5,389C 994.81,388.503 997.143,388.337 999.5,388.5C 999.753,386.173 999.086,384.173 997.5,382.5C 993.843,381.527 990.177,381.361 986.5,382C 985.272,380.51 985.272,379.01 986.5,377.5 Z"/></g>
<g><path style="opacity:1" fill="#fff7f4" d="M 1019.5,377.5 C 1023.5,377.5 1027.5,377.5 1031.5,377.5C 1031.58,378.93 1031.25,380.264 1030.5,381.5C 1020.58,380.581 1016.42,384.914 1018,394.5C 1018.83,395.5 1019.67,396.5 1020.5,397.5C 1024.11,398.262 1027.78,398.762 1031.5,399C 1032.34,400.011 1032.67,401.178 1032.5,402.5C 1016.95,407.001 1010.12,401.334 1012,385.5C 1013.39,381.678 1015.89,379.011 1019.5,377.5 Z"/></g>
<g><path style="opacity:1" fill="#fff7f3" d="M 1084.5,390.5 C 1078.83,390.5 1073.17,390.5 1067.5,390.5C 1067.23,392.099 1067.57,393.432 1068.5,394.5C 1068.94,396.113 1069.94,397.28 1071.5,398C 1075.21,398.175 1078.88,398.675 1082.5,399.5C 1082.83,400.167 1083.17,400.833 1083.5,401.5C 1066.46,406.951 1059.62,400.951 1063,383.5C 1067.18,377.888 1072.68,376.055 1079.5,378C 1083.79,381.093 1085.46,385.26 1084.5,390.5 Z"/></g>
<g><path style="opacity:1" fill="#fff7f4" d="M 1127.5,377.5 C 1143.43,375.969 1148.93,382.969 1144,398.5C 1139.16,403.299 1133.33,404.799 1126.5,403C 1119.64,398.043 1117.8,391.543 1121,383.5C 1123.06,381.266 1125.23,379.266 1127.5,377.5 Z"/></g>
<g><path style="opacity:1" fill="#fff3ee" d="M 737.5,377.5 C 739.792,377.244 741.959,377.577 744,378.5C 746,384.5 748,390.5 750,396.5C 752.52,390.612 754.853,384.612 757,378.5C 758.699,377.594 760.533,377.261 762.5,377.5C 759.806,386.276 756.806,394.943 753.5,403.5C 751.076,403.808 748.743,403.474 746.5,402.5C 743.201,394.243 740.201,385.91 737.5,377.5 Z"/></g>
<g><path style="opacity:1" fill="#fff3ed" d="M 826.5,383.5 C 827.043,383.44 827.376,383.107 827.5,382.5C 823.217,381.508 818.884,381.174 814.5,381.5C 814.5,380.167 814.5,378.833 814.5,377.5C 821.167,377.5 827.833,377.5 834.5,377.5C 834.628,379.655 834.128,381.655 833,383.5C 829.287,388.424 825.454,393.258 821.5,398C 825.821,398.499 830.154,398.666 834.5,398.5C 834.5,400.167 834.5,401.833 834.5,403.5C 827.578,403.812 820.744,403.479 814,402.5C 813.333,401.5 813.333,400.5 814,399.5C 818.417,394.318 822.583,388.984 826.5,383.5 Z"/></g>
<g><path style="opacity:1" fill="#ffc9af" d="M 841.5,377.5 C 841.5,385.833 841.5,394.167 841.5,402.5C 843.167,402.5 844.833,402.5 846.5,402.5C 844.735,403.461 842.735,403.795 840.5,403.5C 840.174,394.651 840.507,385.984 841.5,377.5 Z"/></g>
<g><path style="opacity:1" fill="#fff6f1" d="M 1042.5,402.5 C 1040.83,402.5 1039.17,402.5 1037.5,402.5C 1037.5,389.5 1037.5,376.5 1037.5,363.5C 1038.92,362.549 1040.59,362.216 1042.5,362.5C 1042.33,371.173 1042.5,379.84 1043,388.5C 1046.35,385.318 1049.52,381.985 1052.5,378.5C 1054.83,377.167 1057.17,377.167 1059.5,378.5C 1056.17,382.167 1052.83,385.833 1049.5,389.5C 1053.5,393.833 1057.5,398.167 1061.5,402.5C 1059.24,403.647 1056.9,403.814 1054.5,403C 1051.02,398.549 1047.18,394.382 1043,390.5C 1042.5,394.486 1042.33,398.486 1042.5,402.5 Z"/></g>
<g><path style="opacity:1" fill="#ff712b" d="M 774.5,381.5 C 779.206,380.881 781.873,382.881 782.5,387.5C 778.833,387.5 775.167,387.5 771.5,387.5C 771.615,385.053 772.615,383.053 774.5,381.5 Z"/></g>
<g><path style="opacity:1" fill="#ffb28d" d="M 814.5,381.5 C 818.884,381.174 823.217,381.508 827.5,382.5C 827.376,383.107 827.043,383.44 826.5,383.5C 822.5,382.833 818.5,382.167 814.5,381.5 Z"/></g>
<g><path style="opacity:1" fill="#ff6f28" d="M 1071.5,381.5 C 1076.34,380.677 1078.67,382.677 1078.5,387.5C 1075.17,387.5 1071.83,387.5 1068.5,387.5C 1068.46,384.911 1069.46,382.911 1071.5,381.5 Z"/></g>
<g><path style="opacity:1" fill="#ff6f29" d="M 1129.5,381.5 C 1133.68,380.704 1136.85,382.037 1139,385.5C 1139.67,388.833 1139.67,392.167 1139,395.5C 1136.84,399.124 1133.67,400.291 1129.5,399C 1124.2,393.096 1124.2,387.263 1129.5,381.5 Z"/></g>
<g><path style="opacity:1" fill="#ffa274" d="M 695.5,382.5 C 696.491,388.979 696.824,395.646 696.5,402.5C 698.167,402.5 699.833,402.5 701.5,402.5C 701.177,395.978 701.51,389.645 702.5,383.5C 702.5,390.167 702.5,396.833 702.5,403.5C 700.167,403.5 697.833,403.5 695.5,403.5C 695.5,396.5 695.5,389.5 695.5,382.5 Z"/></g>
<g><path style="opacity:1" fill="#ffb18b" d="M 718.5,384.5 C 719.49,390.645 719.823,396.978 719.5,403.5C 717.265,403.795 715.265,403.461 713.5,402.5C 715.167,402.5 716.833,402.5 718.5,402.5C 718.5,396.5 718.5,390.5 718.5,384.5 Z"/></g>
<g><path style="opacity:1" fill="#ffc2a3" d="M 1107.5,386.5 C 1108.49,391.64 1108.82,396.974 1108.5,402.5C 1110.17,402.5 1111.83,402.5 1113.5,402.5C 1111.74,403.461 1109.74,403.795 1107.5,403.5C 1107.5,397.833 1107.5,392.167 1107.5,386.5 Z"/></g>
<g><path style="opacity:1" fill="#ffbf9f" d="M 787.5,390.5 C 781.923,390.856 776.59,391.856 771.5,393.5C 770.596,392.791 770.263,391.791 770.5,390.5C 776.167,390.5 781.833,390.5 787.5,390.5 Z"/></g>
<g><path style="opacity:1" fill="#ffbc9b" d="M 1084.5,390.5 C 1079.36,391.488 1074.03,391.821 1068.5,391.5C 1068.5,392.5 1068.5,393.5 1068.5,394.5C 1067.57,393.432 1067.23,392.099 1067.5,390.5C 1073.17,390.5 1078.83,390.5 1084.5,390.5 Z"/></g>
<g><path style="opacity:1" fill="#ff7029" d="M 883.5,392.5 C 885.167,392.5 886.833,392.5 888.5,392.5C 889.403,397.267 887.403,399.6 882.5,399.5C 880.734,399.566 879.734,398.732 879.5,397C 880.344,394.993 881.677,393.493 883.5,392.5 Z"/></g>
<g><path style="opacity:1" fill="#ff722d" d="M 953.5,392.5 C 955.167,392.5 956.833,392.5 958.5,392.5C 958.843,398.178 956.176,400.344 950.5,399C 949.978,398.439 949.645,397.772 949.5,397C 950.344,394.993 951.677,393.493 953.5,392.5 Z"/></g>
<g><path style="opacity:1" fill="#ff7430" d="M 994.5,392.5 C 996.167,392.5 997.833,392.5 999.5,392.5C 999.998,398.499 997.331,400.666 991.5,399C 990.941,398.275 990.608,397.442 990.5,396.5C 991.437,394.712 992.77,393.379 994.5,392.5 Z"/></g>
<g><path style="opacity:1" fill="#fffefd" d="M 746.5,460.5 C 744.833,460.5 743.167,460.5 741.5,460.5C 741.5,447.5 741.5,434.5 741.5,421.5C 742.919,420.549 744.585,420.216 746.5,420.5C 746.5,433.833 746.5,447.167 746.5,460.5 Z"/></g>
<g><path style="opacity:1" fill="#ffbf9e" d="M 741.5,421.5 C 741.5,434.5 741.5,447.5 741.5,460.5C 743.167,460.5 744.833,460.5 746.5,460.5C 744.735,461.461 742.735,461.795 740.5,461.5C 740.171,447.99 740.504,434.656 741.5,421.5 Z"/></g>
<g><path style="opacity:1" fill="#fff7f3" d="M 711.5,422.5 C 728.659,421.491 736.492,429.491 735,446.5C 733.703,453.798 729.536,458.631 722.5,461C 701.898,463.052 694.065,453.886 699,433.5C 701.708,428.079 705.875,424.413 711.5,422.5 Z"/></g>
<g><path style="opacity:1" fill="#fff7f3" d="M 917.5,423.5 C 922.747,423.64 923.747,425.806 920.5,430C 915.395,429.751 914.395,427.584 917.5,423.5 Z"/></g>
<g><path style="opacity:1" fill="#ff6c24" d="M 712.5,427.5 C 726.109,427.97 731.275,434.97 728,448.5C 721.924,459.13 714.59,460.13 706,451.5C 701.084,441.392 703.251,433.392 712.5,427.5 Z"/></g>
<g><path style="opacity:1" fill="#fff4ef" d="M 760.5,435.5 C 774.267,433.109 780.433,438.776 779,452.5C 775.152,461.062 768.652,463.895 759.5,461C 753.627,457.061 751.46,451.561 753,444.5C 754.642,440.7 757.142,437.7 760.5,435.5 Z"/></g>
<g><path style="opacity:1" fill="#fff7f3" d="M 822.5,440.5 C 822.5,447.167 822.5,453.833 822.5,460.5C 820.833,460.5 819.167,460.5 817.5,460.5C 817.666,454.491 817.499,448.491 817,442.5C 814.24,440.297 811.24,439.964 808,441.5C 807.5,448.158 807.334,454.825 807.5,461.5C 805.5,461.5 803.5,461.5 801.5,461.5C 801.666,455.158 801.5,448.825 801,442.5C 798.447,440.271 795.614,439.938 792.5,441.5C 791.503,448.134 791.17,454.8 791.5,461.5C 789.5,461.5 787.5,461.5 785.5,461.5C 785.5,454.167 785.5,446.833 785.5,439.5C 784.5,439.5 783.5,439.5 782.5,439.5C 782.5,438.167 782.5,436.833 782.5,435.5C 784.857,435.337 787.19,435.503 789.5,436C 790.126,436.75 790.626,437.584 791,438.5C 794.681,435.64 798.848,434.807 803.5,436C 805.505,438.603 807.838,438.603 810.5,436C 813.5,435.333 816.5,435.333 819.5,436C 820.883,437.271 821.883,438.771 822.5,440.5 Z"/></g>
<g><path style="opacity:1" fill="#fff8f4" d="M 836.5,435.5 C 852.136,433.635 857.969,440.301 854,455.5C 852.749,458.381 850.583,460.214 847.5,461C 833.388,463.555 827.555,457.722 830,443.5C 831.305,440.039 833.471,437.372 836.5,435.5 Z"/></g>
<g><path style="opacity:1" fill="#fff6f2" d="M 861.5,435.5 C 863.5,435.5 865.5,435.5 867.5,435.5C 867.334,441.842 867.5,448.175 868,454.5C 870.838,458.035 874.005,458.368 877.5,455.5C 878.497,448.866 878.83,442.2 878.5,435.5C 880.5,435.5 882.5,435.5 884.5,435.5C 884.5,442.833 884.5,450.167 884.5,457.5C 887.694,457.176 888.694,458.342 887.5,461C 884.208,461.936 881.208,461.436 878.5,459.5C 874.364,461.447 870.03,461.947 865.5,461C 863.951,459.786 862.785,458.286 862,456.5C 861.5,449.508 861.334,442.508 861.5,435.5 Z"/></g>
<g><path style="opacity:1" fill="#fff4ef" d="M 898.5,435.5 C 902.514,435.334 906.514,435.501 910.5,436C 910.966,437.299 910.966,438.799 910.5,440.5C 899.727,438.44 895.56,442.773 898,453.5C 898.833,454.333 899.667,455.167 900.5,456C 904.152,456.499 907.818,456.665 911.5,456.5C 911.5,457.833 911.5,459.167 911.5,460.5C 894.05,464.218 887.883,457.551 893,440.5C 894.73,438.598 896.563,436.931 898.5,435.5 Z"/></g>
<g><path style="opacity:1" fill="#fffdfd" d="M 921.5,435.5 C 921.5,443.833 921.5,452.167 921.5,460.5C 919.833,460.5 918.167,460.5 916.5,460.5C 916.5,452.167 916.5,443.833 916.5,435.5C 918.167,435.5 919.833,435.5 921.5,435.5 Z"/></g>
<g><path style="opacity:1" fill="#fff4ef" d="M 654.5,435.5 C 656.604,435.201 658.604,435.534 660.5,436.5C 662.565,442.527 664.731,448.527 667,454.5C 669.529,448.579 671.863,442.579 674,436.5C 675.699,435.594 677.533,435.261 679.5,435.5C 676.5,444.167 673.5,452.833 670.5,461.5C 668.076,461.808 665.743,461.474 663.5,460.5C 659.893,452.343 656.893,444.009 654.5,435.5 Z"/></g>
<g><path style="opacity:1" fill="#ffbf9f" d="M 921.5,435.5 C 922.493,443.984 922.826,452.651 922.5,461.5C 920.265,461.795 918.265,461.461 916.5,460.5C 918.167,460.5 919.833,460.5 921.5,460.5C 921.5,452.167 921.5,443.833 921.5,435.5 Z"/></g>
<g><path style="opacity:1" fill="#ff6d25" d="M 762.5,439.5 C 766.639,438.704 769.805,440.037 772,443.5C 772.667,447.167 772.667,450.833 772,454.5C 767.601,458.654 763.601,458.321 760,453.5C 758.806,448.369 759.639,443.702 762.5,439.5 Z"/></g>
<g><path style="opacity:1" fill="#ff6d25" d="M 839.5,439.5 C 844.133,438.458 847.299,440.125 849,444.5C 850.213,449.382 849.046,453.548 845.5,457C 840.88,458.538 837.713,457.038 836,452.5C 834.539,447.284 835.705,442.95 839.5,439.5 Z"/></g>
<g><path style="opacity:1" fill="#ffc3a6" d="M 822.5,440.5 C 823.491,447.313 823.825,454.313 823.5,461.5C 821.265,461.795 819.265,461.461 817.5,460.5C 819.167,460.5 820.833,460.5 822.5,460.5C 822.5,453.833 822.5,447.167 822.5,440.5 Z"/></g>
<g><path style="opacity:1" fill="#ff915b" d="M 6.5,23.5 C 6.83333,23.5 7.16667,23.5 7.5,23.5C 7.5,197.167 7.5,370.833 7.5,544.5C 470.833,544.5 934.167,544.5 1397.5,544.5C 934,545.5 470.334,545.833 6.5,545.5C 6.5,371.5 6.5,197.5 6.5,23.5 Z"/></g>
<g><path style="opacity:1" fill="#ff6f29" d="M 858.5,602.5 C 866.632,599.697 872.798,602.03 877,609.5C 878.812,606.72 880.979,604.22 883.5,602C 887.541,601.173 891.541,601.34 895.5,602.5C 891.956,607.755 888.29,612.921 884.5,618C 879.467,618.829 874.467,618.662 869.5,617.5C 866.056,612.255 862.39,607.255 858.5,602.5 Z"/></g>
<g><path style="opacity:1" fill="#ff6e27" d="M 747.5,601.5 C 753.176,601.334 758.843,601.501 764.5,602C 759.833,607.333 755.167,612.667 750.5,618C 747.183,618.498 743.85,618.665 740.5,618.5C 742.571,612.695 744.905,607.029 747.5,601.5 Z"/></g>
<g><path style="opacity:1" fill="#ff6c23" d="M 868.5,621.5 C 878.258,620.524 887.591,622.024 896.5,626C 903.697,630.892 907.364,637.725 907.5,646.5C 902.146,646.569 896.813,646.902 891.5,647.5C 890.189,639.363 885.356,635.363 877,635.5C 871.56,635.188 866.893,636.854 863,640.5C 861.709,645.562 863.542,649.062 868.5,651C 877.529,653.508 886.529,656.175 895.5,659C 908.702,665.231 913.202,675.397 909,689.5C 902.874,702.404 892.54,708.071 878,706.5C 858.428,707.647 846.928,698.647 843.5,679.5C 848.814,677.981 854.147,677.648 859.5,678.5C 863.452,690.813 871.785,695.313 884.5,692C 893.847,688.861 895.847,683.194 890.5,675C 880.226,671.514 869.892,668.181 859.5,665C 847.415,657.745 843.915,647.578 849,634.5C 853.799,627.524 860.299,623.19 868.5,621.5 Z"/></g>
<g><path style="opacity:1" fill="#ffc5a8" d="M 995.5,623.5 C 1002.68,622.181 1010.01,622.181 1017.5,623.5C 1017.38,624.107 1017.04,624.44 1016.5,624.5C 1009.69,623.509 1002.69,623.175 995.5,623.5 Z"/></g>
<g><path style="opacity:1" fill="#ff6c23" d="M 1075.5,621.5 C 1101.22,619.737 1116.72,631.404 1122,656.5C 1123.88,692.287 1107.05,708.787 1071.5,706C 1051.34,699.47 1041.67,685.47 1042.5,664C 1042.2,640.825 1053.2,626.658 1075.5,621.5 Z"/></g>
<g><path style="opacity:1" fill="#ff6b22" d="M 89.5,623.5 C 108.167,623.5 126.833,623.5 145.5,623.5C 145.5,628.167 145.5,632.833 145.5,637.5C 132.167,637.5 118.833,637.5 105.5,637.5C 105.5,643.833 105.5,650.167 105.5,656.5C 117.167,656.5 128.833,656.5 140.5,656.5C 140.5,661.167 140.5,665.833 140.5,670.5C 128.833,670.5 117.167,670.5 105.5,670.5C 105.5,682.167 105.5,693.833 105.5,705.5C 100.167,705.5 94.8333,705.5 89.5,705.5C 89.5,678.167 89.5,650.833 89.5,623.5 Z"/></g>
<g><path style="opacity:1" fill="#ff6c23" d="M 191.5,623.5 C 197.758,623.19 203.924,623.524 210,624.5C 220.642,651.43 231.476,678.264 242.5,705C 236.175,705.5 229.842,705.666 223.5,705.5C 221.711,699.467 219.711,693.467 217.5,687.5C 206.186,686.501 194.853,686.168 183.5,686.5C 181.709,692.539 179.709,698.539 177.5,704.5C 171.528,705.664 165.528,705.83 159.5,705C 170.312,677.879 180.978,650.712 191.5,623.5 Z"/></g>
<g><path style="opacity:1" fill="#ff6b23" d="M 284.5,623.5 C 284.168,635.518 284.501,647.518 285.5,659.5C 286.107,659.376 286.44,659.043 286.5,658.5C 296.961,646.87 307.628,635.37 318.5,624C 325.833,623.333 333.167,623.333 340.5,624C 329.952,634.046 319.952,644.546 310.5,655.5C 321.042,672.085 331.709,688.585 342.5,705C 335.5,705.667 328.5,705.667 321.5,705C 313.694,692.548 306.027,680.048 298.5,667.5C 294.182,671.318 290.015,675.318 286,679.5C 285.5,688.16 285.334,696.827 285.5,705.5C 279.833,705.5 274.167,705.5 268.5,705.5C 268.5,678.167 268.5,650.833 268.5,623.5C 273.833,623.5 279.167,623.5 284.5,623.5 Z"/></g>
<g><path style="opacity:1" fill="#ff8f59" d="M 284.5,623.5 C 285.167,635.167 285.833,646.833 286.5,658.5C 286.44,659.043 286.107,659.376 285.5,659.5C 284.501,647.518 284.168,635.518 284.5,623.5 Z"/></g>
<g><path style="opacity:1" fill="#ff6a21" d="M 420.5,681.5 C 421.497,662.341 421.83,643.007 421.5,623.5C 426.833,623.5 432.167,623.5 437.5,623.5C 437.667,643.503 437.5,663.503 437,683.5C 435.656,696.512 428.489,704.012 415.5,706C 406.756,706.91 398.089,706.576 389.5,705C 379.193,700.555 373.693,692.722 373,681.5C 372.5,662.17 372.333,642.836 372.5,623.5C 377.833,623.5 383.167,623.5 388.5,623.5C 388.333,642.503 388.5,661.503 389,680.5C 393.021,691.593 400.854,695.426 412.5,692C 416.98,689.869 419.647,686.369 420.5,681.5 Z"/></g>
<g><path style="opacity:1" fill="#ffdac8" d="M 437.5,623.5 C 432.167,623.5 426.833,623.5 421.5,623.5C 421.83,643.007 421.497,662.341 420.5,681.5C 420.5,661.833 420.5,642.167 420.5,622.5C 426.358,622.178 432.025,622.511 437.5,623.5 Z"/></g>
<g><path style="opacity:1" fill="#ff6c24" d="M 606.5,623.5 C 606.5,627.833 606.5,632.167 606.5,636.5C 598.316,636.174 590.316,636.508 582.5,637.5C 582.5,660.167 582.5,682.833 582.5,705.5C 576.833,705.5 571.167,705.5 565.5,705.5C 565.5,682.833 565.5,660.167 565.5,637.5C 557.5,637.5 549.5,637.5 541.5,637.5C 541.5,632.833 541.5,628.167 541.5,623.5C 563.167,623.5 584.833,623.5 606.5,623.5 Z"/></g>
<g><path style="opacity:1" fill="#ff6a21" d="M 638.5,623.5 C 644.206,623.171 649.872,623.505 655.5,624.5C 666.333,642.167 677.167,659.833 688,677.5C 688.5,659.503 688.667,641.503 688.5,623.5C 693.5,623.5 698.5,623.5 703.5,623.5C 703.5,650.833 703.5,678.167 703.5,705.5C 697.794,705.829 692.128,705.495 686.5,704.5C 675.917,686.998 665.084,669.665 654,652.5C 653.5,670.164 653.333,687.83 653.5,705.5C 648.5,705.5 643.5,705.5 638.5,705.5C 638.5,678.167 638.5,650.833 638.5,623.5 Z"/></g>
<g><path style="opacity:1" fill="#ff6d25" d="M 741.5,623.5 C 747.167,623.5 752.833,623.5 758.5,623.5C 758.5,650.833 758.5,678.167 758.5,705.5C 752.833,705.5 747.167,705.5 741.5,705.5C 741.5,678.167 741.5,650.833 741.5,623.5 Z"/></g>
<g><path style="opacity:1" fill="#ff6b22" d="M 961.5,623.5 C 961.168,635.518 961.501,647.518 962.5,659.5C 963.107,659.376 963.44,659.043 963.5,658.5C 974.195,646.807 984.862,635.141 995.5,623.5C 1002.69,623.175 1009.69,623.509 1016.5,624.5C 1006.49,634.512 996.822,644.845 987.5,655.5C 998.042,672.085 1008.71,688.585 1019.5,705C 1012.14,705.831 1004.81,705.665 997.5,704.5C 990.418,692.001 983.085,679.668 975.5,667.5C 971.182,671.318 967.015,675.318 963,679.5C 962.5,688.16 962.334,696.827 962.5,705.5C 956.833,705.5 951.167,705.5 945.5,705.5C 945.5,678.167 945.5,650.833 945.5,623.5C 950.833,623.5 956.167,623.5 961.5,623.5 Z"/></g>
<g><path style="opacity:1" fill="#ffaa80" d="M 961.5,623.5 C 962.167,635.167 962.833,646.833 963.5,658.5C 963.44,659.043 963.107,659.376 962.5,659.5C 961.501,647.518 961.168,635.518 961.5,623.5 Z"/></g>
<g><path style="opacity:1" fill="#ff6c24" d="M 1263.5,623.5 C 1269.83,623.5 1276.17,623.5 1282.5,623.5C 1282.34,624.873 1282.51,626.207 1283,627.5C 1293.35,653.226 1303.85,678.892 1314.5,704.5C 1308.53,705.664 1302.53,705.83 1296.5,705C 1293.75,698.992 1291.41,692.825 1289.5,686.5C 1278.49,686.333 1267.49,686.5 1256.5,687C 1254.07,692.777 1251.74,698.61 1249.5,704.5C 1243.87,705.495 1238.21,705.829 1232.5,705.5C 1242.84,678.139 1253.17,650.806 1263.5,623.5 Z"/></g>
<g><path style="opacity:1" fill="#ff6a21" d="M 493.5,691.5 C 507.167,691.5 520.833,691.5 534.5,691.5C 534.5,696.167 534.5,700.833 534.5,705.5C 515.5,705.5 496.5,705.5 477.5,705.5C 477.5,678.5 477.5,651.5 477.5,624.5C 482.5,624.5 487.5,624.5 492.5,624.5C 492.169,647.006 492.503,669.34 493.5,691.5 Z"/></g>
<g><path style="opacity:1" fill="#ff8548" d="M 493.5,691.5 C 492.503,669.34 492.169,647.006 492.5,624.5C 487.5,624.5 482.5,624.5 477.5,624.5C 477.5,651.5 477.5,678.5 477.5,705.5C 476.502,678.338 476.169,651.005 476.5,623.5C 482.167,623.5 487.833,623.5 493.5,623.5C 493.5,646.167 493.5,668.833 493.5,691.5 Z"/></g>
<g><path style="opacity:1" fill="#ff6a21" d="M 1156.5,624.5 C 1161.83,624.5 1167.17,624.5 1172.5,624.5C 1172.17,647.006 1172.5,669.34 1173.5,691.5C 1187.17,691.5 1200.83,691.5 1214.5,691.5C 1214.5,696.167 1214.5,700.833 1214.5,705.5C 1195.17,705.5 1175.83,705.5 1156.5,705.5C 1156.5,678.5 1156.5,651.5 1156.5,624.5 Z"/></g>
<g><path style="opacity:1" fill="#ffaf88" d="M 1156.5,624.5 C 1161.98,623.511 1167.64,623.178 1173.5,623.5C 1173.5,646.167 1173.5,668.833 1173.5,691.5C 1172.5,669.34 1172.17,647.006 1172.5,624.5C 1167.17,624.5 1161.83,624.5 1156.5,624.5 Z"/></g>
<g><path style="opacity:1" fill="#ffb590" d="M 606.5,623.5 C 607.486,627.97 607.819,632.637 607.5,637.5C 599.167,637.5 590.833,637.5 582.5,637.5C 590.316,636.508 598.316,636.174 606.5,636.5C 606.5,632.167 606.5,627.833 606.5,623.5 Z"/></g>
<g><path style="opacity:1" fill="#fffdfc" d="M 1074.5,636.5 C 1089.41,633.61 1099.24,639.276 1104,653.5C 1105.3,663.448 1104.3,673.114 1101,682.5C 1092.32,693.105 1081.82,695.272 1069.5,689C 1064.67,684.842 1061.51,679.675 1060,673.5C 1058.14,662.818 1059.81,652.818 1065,643.5C 1067.79,640.535 1070.96,638.202 1074.5,636.5 Z"/></g>
<g><path style="opacity:1" fill="#fffaf8" d="M 199.5,642.5 C 200.117,642.611 200.617,642.944 201,643.5C 204.377,653.079 207.877,662.579 211.5,672C 204.144,672.831 196.811,672.665 189.5,671.5C 193.243,661.937 196.576,652.27 199.5,642.5 Z"/></g>
<g><path style="opacity:1" fill="#fffaf8" d="M 1271.5,643.5 C 1272.75,643.577 1273.58,644.244 1274,645.5C 1276.86,654.285 1280.03,662.951 1283.5,671.5C 1276.17,672.833 1268.83,672.833 1261.5,671.5C 1265.04,662.219 1268.37,652.886 1271.5,643.5 Z"/></g>
<g><path style="opacity:1" fill="#7a7a7a" d="M 1383.5,800.5 C 1382.83,800.5 1382.17,800.5 1381.5,800.5C 1382.17,780.5 1382.83,780.5 1383.5,800.5 Z"/></g>
</svg>
