<?xml version="1.0" encoding="UTF-8"?>
<!DOCTYPE svg PUBLIC "-//W3C//DTD SVG 1.1//EN" "http://www.w3.org/Graphics/SVG/1.1/DTD/svg11.dtd">
<svg xmlns="http://www.w3.org/2000/svg" version="1.1" width="265px" height="61px" style="shape-rendering:geometricPrecision; text-rendering:geometricPrecision; image-rendering:optimizeQuality; fill-rule:evenodd; clip-rule:evenodd" xmlns:xlink="http://www.w3.org/1999/xlink">
<g><path style="opacity:1" fill="#f83d79" d="M 29.5,4.5 C 29.7471,7.93869 29.4137,11.272 28.5,14.5C 24.8362,17.3346 20.8362,19.668 16.5,21.5C 16.1667,21.5 15.8333,21.5 15.5,21.5C 12.5498,20.6916 9.88311,19.3582 7.5,17.5C 11.3233,14.0843 15.6566,11.4176 20.5,9.5C 22.0269,9.57298 23.0269,8.90632 23.5,7.5C 25.3545,6.3104 27.1879,4.97706 29,3.5C 29.3988,3.72845 29.5654,4.06178 29.5,4.5 Z"/></g>
<g><path style="opacity:0.999" fill="#8a2cc3" d="M 29.5,4.5 C 36.9965,7.74476 43.9965,11.7448 50.5,16.5C 48.3375,19.4205 45.3375,21.0871 41.5,21.5C 37.4235,18.7728 33.0902,16.4394 28.5,14.5C 29.4137,11.272 29.7471,7.93869 29.5,4.5 Z"/></g>
<g><path style="opacity:0.525" fill="#edaecd" d="M 23.5,7.5 C 23.0269,8.90632 22.0269,9.57298 20.5,9.5C 20.9731,8.09368 21.9731,7.42702 23.5,7.5 Z"/></g>
<g><path style="opacity:0.989" fill="#8a8e8e" d="M 210.5,7.5 C 212.857,7.33669 215.19,7.50335 217.5,8C 216.36,9.97337 215.027,11.8067 213.5,13.5C 211.235,14.6474 208.902,14.8141 206.5,14C 208.058,11.9481 209.392,9.78145 210.5,7.5 Z"/></g>
<g><path style="opacity:0.983" fill="#898e8d" d="M 230.5,7.5 C 233.044,7.10433 235.211,7.77099 237,9.5C 238.789,7.77099 240.956,7.10433 243.5,7.5C 242.431,13.6688 238.931,15.6688 233,13.5C 231.441,11.7834 230.608,9.7834 230.5,7.5 Z"/></g>
<g><path style="opacity:0.018" fill="#e1eef0" d="M 7.5,17.5 C 7.5,24.5 7.5,31.5 7.5,38.5C 7.23219,40.099 7.56552,41.4324 8.5,42.5C 8.5,42.8333 8.5,43.1667 8.5,43.5C 7.17453,39.5549 6.50786,35.2216 6.5,30.5C 6.50093,25.9866 6.83426,21.6533 7.5,17.5 Z"/></g>
<g><path style="opacity:0.979" fill="#797a79" d="M 73.5,16.5 C 78.9586,16.1033 84.2919,16.6033 89.5,18C 92.5341,21.2019 93.2008,24.8685 91.5,29C 94.6514,33.9417 93.9847,38.2751 89.5,42C 84.1771,42.4994 78.8437,42.666 73.5,42.5C 73.5,33.8333 73.5,25.1667 73.5,16.5 Z M 82.5,21.5 C 83.7079,22.2341 85.0413,22.5674 86.5,22.5C 86.67,23.8221 86.3366,24.9887 85.5,26C 83.5273,26.4955 81.5273,26.6621 79.5,26.5C 79.5,25.1667 79.5,23.8333 79.5,22.5C 80.791,22.7373 81.791,22.404 82.5,21.5 Z M 86.5,32.5 C 88.8769,34.0302 88.8769,35.5302 86.5,37C 84.1902,37.4966 81.8568,37.6633 79.5,37.5C 79.5,35.8333 79.5,34.1667 79.5,32.5C 81.8333,32.5 84.1667,32.5 86.5,32.5 Z"/></g>
<g><path style="opacity:0.995" fill="#818382" d="M 105.5,16.5 C 108.119,16.2317 110.619,16.565 113,17.5C 116.413,25.6543 119.246,33.9877 121.5,42.5C 116.95,43.2758 114.284,41.4424 113.5,37C 110.833,36.3333 108.167,36.3333 105.5,37C 104.716,41.4424 102.05,43.2758 97.5,42.5C 99.9682,33.7627 102.635,25.096 105.5,16.5 Z M 108.5,25.5 C 109.472,26.8684 110.472,28.3684 111.5,30C 110.234,30.3095 109.067,30.8095 108,31.5C 107.51,29.4546 107.677,27.4546 108.5,25.5 Z"/></g>
<g><path style="opacity:0.986" fill="#7d7f7e" d="M 126.5,16.5 C 128.167,16.5 129.833,16.5 131.5,16.5C 131.46,19.8806 131.793,23.2139 132.5,26.5C 134.722,26.822 136.556,26.1554 138,24.5C 138.765,21.8041 139.932,19.3041 141.5,17C 143.473,16.5045 145.473,16.3379 147.5,16.5C 146.048,20.8481 144.381,25.1814 142.5,29.5C 144.461,33.7493 146.128,38.0826 147.5,42.5C 145.396,42.7989 143.396,42.4656 141.5,41.5C 135.65,28.0514 132.316,28.3848 131.5,42.5C 129.833,42.5 128.167,42.5 126.5,42.5C 126.5,33.8333 126.5,25.1667 126.5,16.5 Z"/></g>
<g><path style="opacity:0.997" fill="#808381" d="M 159.5,16.5 C 162.119,16.2317 164.619,16.565 167,17.5C 170.413,25.6543 173.246,33.9877 175.5,42.5C 170.95,43.2758 168.284,41.4424 167.5,37C 164.833,36.3333 162.167,36.3333 159.5,37C 158.716,41.4424 156.05,43.2758 151.5,42.5C 153.602,33.6375 156.268,24.9708 159.5,16.5 Z M 162.5,24.5 C 163.481,26.396 164.481,28.396 165.5,30.5C 164.311,31.4287 162.978,31.762 161.5,31.5C 161.674,29.139 162.007,26.8056 162.5,24.5 Z"/></g>
<g><path style="opacity:0.97" fill="#7d7f7e" d="M 179.5,16.5 C 181.5,16.5 183.5,16.5 185.5,16.5C 185.5,23.5 185.5,30.5 185.5,37.5C 189.167,37.5 192.833,37.5 196.5,37.5C 196.5,39.1667 196.5,40.8333 196.5,42.5C 190.833,42.5 185.167,42.5 179.5,42.5C 179.5,33.8333 179.5,25.1667 179.5,16.5 Z"/></g>
<g><path style="opacity:0.994" fill="#808281" d="M 206.5,16.5 C 209.119,16.2317 211.619,16.565 214,17.5C 217.141,25.7568 219.974,34.0902 222.5,42.5C 217.95,43.2758 215.284,41.4424 214.5,37C 211.833,36.3333 209.167,36.3333 206.5,37C 205.716,41.4424 203.05,43.2758 198.5,42.5C 200.862,33.7135 203.529,25.0468 206.5,16.5 Z M 209.5,27.5 C 209.833,28.8333 210.167,28.8333 210.5,27.5C 213.577,30.3434 212.91,31.6768 208.5,31.5C 208.232,29.901 208.566,28.5676 209.5,27.5 Z"/></g>
<g><path style="opacity:0.977" fill="#7c7e7d" d="M 227.5,16.5 C 232.511,16.3341 237.511,16.5007 242.5,17C 247.069,19.5414 248.569,23.3747 247,28.5C 246.167,30.6667 244.667,32.1667 242.5,33C 244.545,35.5864 246.211,38.4198 247.5,41.5C 245.579,42.641 243.579,42.8077 241.5,42C 240.126,39.4171 238.626,36.9171 237,34.5C 235.989,33.6634 234.822,33.33 233.5,33.5C 232.933,36.5761 232.599,39.5761 232.5,42.5C 230.833,42.5 229.167,42.5 227.5,42.5C 227.5,33.8333 227.5,25.1667 227.5,16.5 Z M 235.5,21.5 C 236.847,22.1712 238.014,22.1712 239,21.5C 243.5,23.3333 243.667,25.5 239.5,28C 237.527,28.4955 235.527,28.6621 233.5,28.5C 234.752,26.6612 234.752,24.8278 233.5,23C 234.416,22.7216 235.082,22.2216 235.5,21.5 Z"/></g>
<g><path style="opacity:0.965" fill="#7f8280" d="M 253.5,16.5 C 255.5,16.5 257.5,16.5 259.5,16.5C 259.5,25.1667 259.5,33.8333 259.5,42.5C 257.5,42.5 255.5,42.5 253.5,42.5C 253.5,33.8333 253.5,25.1667 253.5,16.5 Z"/></g>
<g><path style="opacity:1" fill="#e10918" d="M 7.5,17.5 C 9.88311,19.3582 12.5498,20.6916 15.5,21.5C 15.5,25.1667 15.5,28.8333 15.5,32.5C 13.9307,35.7316 11.264,37.7316 7.5,38.5C 7.5,31.5 7.5,24.5 7.5,17.5 Z"/></g>
<g><path style="opacity:0.026" fill="#d9edef" d="M 235.5,21.5 C 235.082,22.2216 234.416,22.7216 233.5,23C 234.752,24.8278 234.752,26.6612 233.5,28.5C 232.532,26.3926 232.198,24.0593 232.5,21.5C 233.5,21.5 234.5,21.5 235.5,21.5 Z"/></g>
<g><path style="opacity:1" fill="#42a4e0" d="M 50.5,16.5 C 51.1174,16.6107 51.6174,16.944 52,17.5C 53.7869,23.0344 52.2869,27.201 47.5,30C 49.3492,31.093 51.0158,32.4263 52.5,34C 52.2716,34.3988 51.9382,34.5654 51.5,34.5C 48.8333,35.5 46.1667,36.5 43.5,37.5C 41.4832,36.4706 39.4832,35.4706 37.5,34.5C 36.3622,31.6965 36.1955,28.6965 37,25.5C 38.6667,24.2668 40.1667,22.9335 41.5,21.5C 45.3375,21.0871 48.3375,19.4205 50.5,16.5 Z"/></g>
<g><path style="opacity:0.194" fill="#c3d0d2" d="M 82.5,21.5 C 81.791,22.404 80.791,22.7373 79.5,22.5C 79.5,23.8333 79.5,25.1667 79.5,26.5C 81.5273,26.6621 83.5273,26.4955 85.5,26C 86.3366,24.9887 86.67,23.8221 86.5,22.5C 87.8009,23.8845 87.8009,25.3845 86.5,27C 83.854,27.4974 81.1873,27.6641 78.5,27.5C 78.5,25.5 78.5,23.5 78.5,21.5C 79.8333,21.5 81.1667,21.5 82.5,21.5 Z"/></g>
<g><path style="opacity:0.284" fill="#bfcbcd" d="M 86.5,32.5 C 84.1667,32.5 81.8333,32.5 79.5,32.5C 79.5,34.1667 79.5,35.8333 79.5,37.5C 78.5386,35.7354 78.2053,33.7354 78.5,31.5C 81.3854,31.1936 84.0521,31.5269 86.5,32.5 Z"/></g>
<g><path style="opacity:0.998" fill="#56aa42" d="M 51.5,34.5 C 51.7839,37.7766 51.4505,40.9433 50.5,44C 43.7664,48.3659 36.7664,52.1992 29.5,55.5C 29.7471,52.0613 29.4137,48.728 28.5,45.5C 32.7451,43.9045 36.7451,41.9045 40.5,39.5C 42.0269,39.573 43.0269,38.9063 43.5,37.5C 46.1667,36.5 48.8333,35.5 51.5,34.5 Z"/></g>
<g><path style="opacity:0.196" fill="#b0dbd1" d="M 37.5,34.5 C 39.4832,35.4706 41.4832,36.4706 43.5,37.5C 43.0269,38.9063 42.0269,39.573 40.5,39.5C 40.6107,38.8826 40.944,38.3826 41.5,38C 39.6763,37.34 38.343,36.1733 37.5,34.5 Z"/></g>
<g><path style="opacity:1" fill="#c7172b" d="M 15.5,32.5 C 15.6621,34.5273 15.4955,36.5273 15,38.5C 12.6857,39.7332 10.5191,41.0666 8.5,42.5C 7.56552,41.4324 7.23219,40.099 7.5,38.5C 11.264,37.7316 13.9307,35.7316 15.5,32.5 Z"/></g>
<g><path style="opacity:1" fill="#f2a141" d="M 15.5,21.5 C 15.8333,21.5 16.1667,21.5 16.5,21.5C 16.1712,27.2055 16.5046,32.8722 17.5,38.5C 19.8132,39.5005 21.8132,40.8338 23.5,42.5C 24.1553,44.5113 24.822,46.5113 25.5,48.5C 25.3333,49.8333 25.1667,51.1667 25,52.5C 24.3292,51.7476 23.4959,51.4142 22.5,51.5C 20.1815,51.0075 18.1815,50.0075 16.5,48.5C 16.0269,47.0937 15.0269,46.427 13.5,46.5C 12.5084,46.6716 11.8417,46.3382 11.5,45.5C 11.0269,44.0937 10.0269,43.427 8.5,43.5C 8.5,43.1667 8.5,42.8333 8.5,42.5C 10.5191,41.0666 12.6857,39.7332 15,38.5C 15.4955,36.5273 15.6621,34.5273 15.5,32.5C 15.5,28.8333 15.5,25.1667 15.5,21.5 Z"/></g>
<g><path style="opacity:0.239" fill="#ead9b6" d="M 8.5,43.5 C 10.0269,43.427 11.0269,44.0937 11.5,45.5C 9.97306,45.573 8.97306,44.9063 8.5,43.5 Z"/></g>
<g><path style="opacity:0.129" fill="#e7dec5" d="M 13.5,46.5 C 15.0269,46.427 16.0269,47.0937 16.5,48.5C 14.9731,48.573 13.9731,47.9063 13.5,46.5 Z"/></g>
<g><path style="opacity:1" fill="#de8c3a" d="M 23.5,42.5 C 25.4341,43.1103 27.1007,44.1103 28.5,45.5C 29.4137,48.728 29.7471,52.0613 29.5,55.5C 26.6689,54.9213 24.3356,53.588 22.5,51.5C 23.4959,51.4142 24.3292,51.7476 25,52.5C 25.1667,51.1667 25.3333,49.8333 25.5,48.5C 24.822,46.5113 24.1553,44.5113 23.5,42.5 Z"/></g>
</svg>
