<?xml version="1.0" encoding="UTF-8"?>
<!DOCTYPE svg PUBLIC "-//W3C//DTD SVG 1.1//EN" "http://www.w3.org/Graphics/SVG/1.1/DTD/svg11.dtd">
<svg xmlns="http://www.w3.org/2000/svg" version="1.1" width="500px" height="500px" style="shape-rendering:geometricPrecision; text-rendering:geometricPrecision; image-rendering:optimizeQuality; fill-rule:evenodd; clip-rule:evenodd" xmlns:xlink="http://www.w3.org/1999/xlink">
<g><path style="opacity:1" fill="#37547c" d="M 259.5,35.5 C 292.441,33.8805 325.108,36.0472 357.5,42C 384.201,49.1773 409.867,59.0106 434.5,71.5C 435.5,104.16 435.833,136.827 435.5,169.5C 431.818,169.665 428.152,169.499 424.5,169C 405.549,152.85 384.882,139.183 362.5,128C 320.429,108.874 278.429,108.874 236.5,128C 204.439,147.247 185.105,175.414 178.5,212.5C 142.167,212.5 105.833,212.5 69.5,212.5C 83.2124,120.957 134.879,63.7907 224.5,41C 236.248,38.7445 247.914,36.9111 259.5,35.5 Z"/></g>
<g><path style="opacity:0.997" fill="#b0bc3f" d="M 437.5,314.5 C 404.004,313.502 370.337,313.168 336.5,313.5C 297.167,313.5 257.833,313.5 218.5,313.5C 218.167,279.493 218.5,245.493 219.5,211.5C 306.792,212.497 394.126,212.831 481.5,212.5C 481.5,246.167 481.5,279.833 481.5,313.5C 466.758,313.678 452.091,314.011 437.5,314.5 Z M 356.5,233.5 C 359.448,233.223 362.281,233.556 365,234.5C 365.89,237.706 365.557,240.706 364,243.5C 360.559,242.706 357.059,242.54 353.5,243C 352.556,240.281 352.223,237.448 352.5,234.5C 354.099,234.768 355.432,234.434 356.5,233.5 Z M 302.5,288.5 C 301.833,289.167 301.167,289.833 300.5,290.5C 296.486,290.666 292.486,290.499 288.5,290C 284.212,284.59 280.045,279.09 276,273.5C 274.468,271.438 272.468,270.104 270,269.5C 268.706,275.997 268.039,282.664 268,289.5C 263.667,290.833 259.333,290.833 255,289.5C 254.5,271.836 254.333,254.17 254.5,236.5C 265.174,235.121 275.841,235.288 286.5,237C 295.29,241.298 298.123,248.132 295,257.5C 292.85,261.64 290.017,265.14 286.5,268C 291.727,274.975 297.061,281.809 302.5,288.5 Z M 320.5,248.5 C 338.72,248.052 346.053,256.885 342.5,275C 342.488,280.08 342.154,285.08 341.5,290C 337.833,290.667 334.167,290.667 330.5,290C 329.929,288.795 329.262,287.628 328.5,286.5C 320.217,293.544 312.717,292.877 306,284.5C 302.925,275.65 305.758,269.483 314.5,266C 319.123,265.042 323.79,264.375 328.5,264C 329.833,262.333 329.833,260.667 328.5,259C 325.692,258.007 322.859,257.173 320,256.5C 315.922,257.802 311.755,258.802 307.5,259.5C 307.223,256.552 307.556,253.719 308.5,251C 312.609,250.056 316.609,249.222 320.5,248.5 Z M 389.5,248.5 C 393.49,248.999 397.49,249.499 401.5,250C 403.329,250.273 404.829,251.107 406,252.5C 406.818,255.227 406.652,257.894 405.5,260.5C 399.288,257.177 392.955,256.51 386.5,258.5C 385.152,260.611 385.485,262.445 387.5,264C 392.615,264.955 397.615,266.289 402.5,268C 410.556,276.143 409.556,283.143 399.5,289C 392.582,290.551 385.582,290.884 378.5,290C 376.481,289.55 374.648,288.717 373,287.5C 372.179,284.446 372.345,281.446 373.5,278.5C 380.291,282.418 387.457,283.418 395,281.5C 395.825,279.299 395.325,277.466 393.5,276C 385.89,275.472 379.39,272.639 374,267.5C 371.857,261.918 373.024,257.085 377.5,253C 381.301,250.584 385.301,249.084 389.5,248.5 Z M 431.5,248.5 C 446.59,248.759 453.424,256.426 452,271.5C 443.137,272.017 433.971,272.017 424.5,271.5C 424.043,276.421 426.043,279.921 430.5,282C 434.5,282.667 438.5,282.667 442.5,282C 445.505,280.646 448.505,279.646 451.5,279C 451.455,281.636 451.288,284.47 451,287.5C 441.989,291.392 432.822,291.892 423.5,289C 415.475,285.297 411.475,278.963 411.5,270C 412.554,257.451 419.22,250.284 431.5,248.5 Z M 355.5,249.5 C 358.777,249.216 361.943,249.549 365,250.5C 365.979,263.988 365.646,277.321 364,290.5C 360.64,290.733 357.14,290.399 353.5,289.5C 352.501,276.517 352.168,263.517 352.5,250.5C 353.791,250.737 354.791,250.404 355.5,249.5 Z"/></g>
<g><path style="opacity:0.994" fill="#b2bd43" d="M 40.5,234.5 C 44.9996,234.611 49.4996,234.611 54,234.5C 54.3333,242.167 54.6667,249.833 55,257.5C 59.4618,250.074 64.2952,242.908 69.5,236C 75.1959,235.17 80.8625,235.337 86.5,236.5C 80.2549,244.657 74.2549,252.99 68.5,261.5C 74.8333,270.833 81.1667,280.167 87.5,289.5C 82.1977,290.663 76.8643,290.829 71.5,290C 66.6379,283.304 61.9712,276.47 57.5,269.5C 56.5224,269.977 55.6891,270.643 55,271.5C 54.5005,277.825 54.3338,284.158 54.5,290.5C 49.8333,290.5 45.1667,290.5 40.5,290.5C 40.5,271.833 40.5,253.167 40.5,234.5 Z"/></g>
<g><path style="opacity:0.997" fill="#b4bf48" d="M 170.5,234.5 C 174.768,235.373 179.102,235.706 183.5,235.5C 177.634,253.574 171.467,271.574 165,289.5C 159.667,290.833 154.333,290.833 149,289.5C 142.533,271.574 136.366,253.574 130.5,235.5C 135.43,235.197 140.263,235.531 145,236.5C 149.004,248.511 153.004,260.511 157,272.5C 161.023,259.593 165.523,246.927 170.5,234.5 Z"/></g>
<g><path style="opacity:0.99" fill="#b2bd44" d="M 268.5,245.5 C 280.726,243.211 284.726,247.711 280.5,259C 276.637,260.354 272.637,260.854 268.5,260.5C 268.5,255.5 268.5,250.5 268.5,245.5 Z"/></g>
<g><path style="opacity:0.995" fill="#b7c150" d="M 428.5,256.5 C 435.774,254.63 439.274,257.297 439,264.5C 434.651,264.416 430.151,264.582 425.5,265C 424.088,261.322 425.088,258.489 428.5,256.5 Z"/></g>
<g><path style="opacity:0.995" fill="#b7c14f" d="M 322.5,271.5 C 324.833,271.5 327.167,271.5 329.5,271.5C 331.501,281 327.834,284.5 318.5,282C 316.266,276.934 317.599,273.434 322.5,271.5 Z"/></g>
<g><path style="opacity:0.975" fill="#aebb3b" d="M 91.5,276.5 C 95.8333,276.5 100.167,276.5 104.5,276.5C 104.5,281.167 104.5,285.833 104.5,290.5C 100.167,290.5 95.8333,290.5 91.5,290.5C 91.5,285.833 91.5,281.167 91.5,276.5 Z"/></g>
<g><path style="opacity:0.976" fill="#aebb3b" d="M 187.5,276.5 C 191.833,276.5 196.167,276.5 200.5,276.5C 200.5,281.167 200.5,285.833 200.5,290.5C 196.167,290.5 191.833,290.5 187.5,290.5C 187.5,285.833 187.5,281.167 187.5,276.5 Z"/></g>
<g><path style="opacity:0.004" fill="#fcfbf0" d="M 302.5,288.5 C 303.289,288.783 303.956,289.283 304.5,290C 303.207,290.49 301.873,290.657 300.5,290.5C 301.167,289.833 301.833,289.167 302.5,288.5 Z"/></g>
<g><path style="opacity:0.999" fill="#36547b" d="M 336.5,313.5 C 370.337,313.168 404.004,313.502 437.5,314.5C 437.83,355.406 437.497,396.239 436.5,437C 386.564,456.943 334.73,467.443 281,468.5C 232.34,470.215 187.84,457.715 147.5,431C 107.558,401.649 82.891,362.482 73.5,313.5C 110.5,313.5 147.5,313.5 184.5,313.5C 196.813,349.977 221.479,373.81 258.5,385C 284.134,391.477 310.134,393.644 336.5,391.5C 336.5,365.5 336.5,339.5 336.5,313.5 Z"/></g>
</svg>
